<?xml version="1.0" encoding="iso-8859-1"?>
<!-- Generator: Adobe Illustrator 19.0.0, SVG Export Plug-In . SVG Version: 6.00 Build 0)  -->
<svg version="1.1" id="Capa_1" xmlns="http://www.w3.org/2000/svg" xmlns:xlink="http://www.w3.org/1999/xlink" x="0px" y="0px"
	 viewBox="0 0 512 512" style="enable-background:new 0 0 512 512;" xml:space="preserve">
<linearGradient id="SVGID_1_" gradientUnits="userSpaceOnUse" x1="69.9999" y1="258" x2="442.0001" y2="258" gradientTransform="matrix(1 0 0 -1 0 514)">
	<stop  offset="0" style="stop-color:#80D8FF"/>
	<stop  offset="1" style="stop-color:#EA80FC"/>
</linearGradient>
<path style="fill:url(#SVGID_1_);" d="M321.907,512H190.093c-11.046,0-20-8.954-20-20V256H90c-7.618,0-14.574-4.328-17.941-11.161
	c-3.367-6.833-2.559-14.986,2.083-21.026l166-216C243.928,2.887,249.788,0,256,0c6.213,0,12.072,2.887,15.857,7.813l166,216
	c4.643,6.04,5.45,14.193,2.083,21.026C436.574,251.672,429.618,256,422,256h-80.093v236C341.907,503.046,332.953,512,321.907,512z
	 M210.093,472h91.814V236c0-11.046,8.954-20,20-20h59.498L256,52.821L130.594,216h59.499c11.046,0,20,8.954,20,20L210.093,472
	L210.093,472z"/>
<g>
</g>
<g>
</g>
<g>
</g>
<g>
</g>
<g>
</g>
<g>
</g>
<g>
</g>
<g>
</g>
<g>
</g>
<g>
</g>
<g>
</g>
<g>
</g>
<g>
</g>
<g>
</g>
<g>
</g>
</svg>
